<svg xmlns="http://www.w3.org/2000/svg" width="20.163" height="19.718" viewBox="0 0 20.163 19.718">
  <path id="Icon_material-notifications-active" data-name="Icon material-notifications-active" d="M8.657,5.348,7.211,3.9A10.542,10.542,0,0,0,3.045,11.84H5.067A8.54,8.54,0,0,1,8.657,5.348ZM21.186,11.84h2.022A10.606,10.606,0,0,0,19.042,3.9L17.606,5.348A8.59,8.59,0,0,1,21.186,11.84Zm-1.992.506c0-3.1-1.658-5.7-4.55-6.391V5.267a1.517,1.517,0,0,0-3.034,0v.688c-2.9.688-4.55,3.276-4.55,6.391V17.4L5.037,19.424v1.011H21.216V19.424L19.194,17.4ZM13.127,23.468a1.771,1.771,0,0,0,.4-.04,2.052,2.052,0,0,0,1.456-1.193,2.03,2.03,0,0,0,.152-.789H11.094A2.037,2.037,0,0,0,13.127,23.468Z" transform="translate(-3.045 -3.75)" fill="#fff"/>
</svg>
