<svg xmlns="http://www.w3.org/2000/svg" width="17.194" height="21.182" viewBox="0 0 17.194 21.182">
  <path id="Icon_simple-apple" data-name="Icon simple-apple" d="M7.632,20.773a4.744,4.744,0,0,1-1.1-1.014A13.606,13.606,0,0,1,5.6,18.476a12.407,12.407,0,0,1-1.57-3.207,12.06,12.06,0,0,1-.655-3.834,7.127,7.127,0,0,1,.884-3.608A5.1,5.1,0,0,1,6.107,5.9,4.939,4.939,0,0,1,8.612,5.16a4.136,4.136,0,0,1,1,.132c.256.071.565.185.944.326.485.185.75.3.838.326a2.066,2.066,0,0,0,.706.15,2.111,2.111,0,0,0,.569-.115c.128-.044.37-.123.714-.273.34-.123.61-.229.825-.309a7.361,7.361,0,0,1,.926-.229,4.372,4.372,0,0,1,1.013-.044,6.007,6.007,0,0,1,1.711.37,4.616,4.616,0,0,1,2.167,1.729,4.341,4.341,0,0,0-.64.485A5.4,5.4,0,0,0,18.3,9.037a4.5,4.5,0,0,0-.568,2.223,4.552,4.552,0,0,0,.741,2.523,4.7,4.7,0,0,0,1.353,1.355,3.467,3.467,0,0,0,.741.4c-.106.331-.222.653-.357.97a12.516,12.516,0,0,1-1.1,2.038c-.381.556-.681.97-.909,1.244a4.918,4.918,0,0,1-1.041.968,2.317,2.317,0,0,1-1.281.385,2.84,2.84,0,0,1-.912-.112c-.256-.084-.508-.178-.755-.285a6.121,6.121,0,0,0-.8-.3,3.986,3.986,0,0,0-1.027-.13,4.116,4.116,0,0,0-1.023.128,6.358,6.358,0,0,0-.8.287c-.37.154-.613.256-.754.3a3.944,3.944,0,0,1-.873.154,2.425,2.425,0,0,1-1.311-.4ZM13.678,4.489a3.285,3.285,0,0,1-1.74.385,3.537,3.537,0,0,1,.238-1.8A4.857,4.857,0,0,1,13.058,1.6,4.771,4.771,0,0,1,14.5.484,4.09,4.09,0,0,1,16.163,0a4.01,4.01,0,0,1-.221,1.826,5.238,5.238,0,0,1-.882,1.552,4.45,4.45,0,0,1-1.4,1.111Z" transform="translate(-3.37 0.001)" fill="#fff"/>
</svg>
