<svg xmlns="http://www.w3.org/2000/svg" width="33.916" height="25.437" viewBox="0 0 33.916 25.437">
  <path id="Path_148" data-name="Path 148" d="M31.655,0a2.159,2.159,0,0,1,1.413.565,2.014,2.014,0,0,1,.848,1.7v21.2a2.159,2.159,0,0,1-.565,1.413,3.03,3.03,0,0,1-1.7.565H2.261a3.03,3.03,0,0,1-1.7-.565A3.03,3.03,0,0,1,0,23.176V2.261A2.159,2.159,0,0,1,.565.848,2.014,2.014,0,0,1,2.261,0ZM9.61,5.087A3.209,3.209,0,0,0,7.348,4.24a3.209,3.209,0,0,0-2.261.848A3.209,3.209,0,0,0,4.24,7.348,3.209,3.209,0,0,0,5.087,9.61a3.209,3.209,0,0,0,2.261.848A3.209,3.209,0,0,0,9.61,9.61a3.209,3.209,0,0,0,.848-2.261A3.209,3.209,0,0,0,9.61,5.087ZM29.677,21.2,21.2,8.479l-7.631,9.892L8.479,14.7,4.24,21.2Z" fill="#f9fcff"/>
</svg>
